<svg width="472" height="30" viewBox="0 0 472 30" fill="none" xmlns="http://www.w3.org/2000/svg">
<path d="M47.1518 20V11.2727H50.4927C51.1234 11.2727 51.6475 11.3722 52.0652 11.571C52.4856 11.767 52.7995 12.0355 53.0069 12.3764C53.2172 12.7173 53.3223 13.1037 53.3223 13.5355C53.3223 13.8906 53.2541 14.1946 53.1177 14.4474C52.9814 14.6974 52.7981 14.9006 52.568 15.0568C52.3379 15.2131 52.0808 15.3253 51.7967 15.3935V15.4787C52.1064 15.4957 52.4032 15.5909 52.6873 15.7642C52.9743 15.9347 53.2086 16.1761 53.3904 16.4886C53.5723 16.8011 53.6632 17.179 53.6632 17.6222C53.6632 18.0739 53.5538 18.4801 53.3351 18.8409C53.1163 19.1989 52.7868 19.4815 52.3464 19.6889C51.9061 19.8963 51.3521 20 50.6845 20H47.1518ZM48.7328 18.679H50.4331C51.0069 18.679 51.4203 18.5696 51.6731 18.3509C51.9288 18.1293 52.0566 17.8452 52.0566 17.4986C52.0566 17.2401 51.9927 17.0071 51.8649 16.7997C51.737 16.5895 51.5552 16.4247 51.3194 16.3054C51.0836 16.1832 50.8024 16.1222 50.4757 16.1222H48.7328V18.679ZM48.7328 14.9844H50.2967C50.5694 14.9844 50.8152 14.9347 51.0339 14.8352C51.2527 14.733 51.4245 14.5895 51.5495 14.4048C51.6774 14.2173 51.7413 13.9957 51.7413 13.7401C51.7413 13.402 51.622 13.1236 51.3833 12.9048C51.1475 12.6861 50.7967 12.5767 50.3308 12.5767H48.7328V14.9844ZM56.8539 20.1321C56.4391 20.1321 56.0655 20.0582 55.7331 19.9105C55.4036 19.7599 55.1422 19.5384 54.949 19.2457C54.7587 18.9531 54.6635 18.5923 54.6635 18.1634C54.6635 17.794 54.7317 17.4886 54.8681 17.2472C55.0044 17.0057 55.1905 16.8125 55.4263 16.6676C55.6621 16.5227 55.9277 16.4134 56.2232 16.3395C56.5215 16.2628 56.8297 16.2074 57.1479 16.1733C57.5314 16.1335 57.8425 16.098 58.0811 16.0668C58.3198 16.0327 58.4931 15.9815 58.601 15.9134C58.7118 15.8423 58.7672 15.733 58.7672 15.5852V15.5597C58.7672 15.2386 58.6721 14.9901 58.4817 14.8139C58.2914 14.6378 58.0172 14.5497 57.6593 14.5497C57.2814 14.5497 56.9817 14.6321 56.7601 14.7969C56.5414 14.9616 56.3936 15.1562 56.3169 15.3807L54.8766 15.1761C54.9902 14.7784 55.1777 14.446 55.4391 14.179C55.7005 13.9091 56.0201 13.7074 56.3979 13.5739C56.7757 13.4375 57.1934 13.3693 57.6507 13.3693C57.9661 13.3693 58.28 13.4062 58.5925 13.4801C58.905 13.554 59.1905 13.6761 59.449 13.8466C59.7076 14.0142 59.915 14.2429 60.0712 14.5327C60.2303 14.8224 60.3098 15.1847 60.3098 15.6193V20H58.8269V19.1009H58.7757C58.682 19.2827 58.5499 19.4531 58.3794 19.6122C58.2118 19.7685 58.0002 19.8949 57.7445 19.9915C57.4917 20.0852 57.1948 20.1321 56.8539 20.1321ZM57.2544 18.9986C57.5641 18.9986 57.8326 18.9375 58.0598 18.8153C58.2871 18.6903 58.4618 18.5256 58.584 18.321C58.709 18.1165 58.7715 17.8935 58.7715 17.652V16.8807C58.7232 16.9205 58.6408 16.9574 58.5243 16.9915C58.4107 17.0256 58.2828 17.0554 58.1408 17.081C57.9988 17.1065 57.8581 17.1293 57.7189 17.1491C57.5797 17.169 57.459 17.1861 57.3567 17.2003C57.1266 17.2315 56.9206 17.2827 56.7388 17.3537C56.557 17.4247 56.4135 17.5241 56.3084 17.652C56.2033 17.777 56.1507 17.9389 56.1507 18.1378C56.1507 18.4219 56.2544 18.6364 56.4618 18.7812C56.6692 18.9261 56.9334 18.9986 57.2544 18.9986ZM67.0343 15.1847L65.628 15.3381C65.5882 15.196 65.5186 15.0625 65.4192 14.9375C65.3226 14.8125 65.1919 14.7116 65.0272 14.6349C64.8624 14.5582 64.6607 14.5199 64.4221 14.5199C64.101 14.5199 63.8311 14.5895 63.6124 14.7287C63.3965 14.8679 63.29 15.0483 63.2928 15.2699C63.29 15.4602 63.3596 15.6151 63.5016 15.7344C63.6465 15.8537 63.8851 15.9517 64.2175 16.0284L65.334 16.267C65.9533 16.4006 66.4135 16.6122 66.7147 16.902C67.0186 17.1918 67.1721 17.571 67.1749 18.0398C67.1721 18.4517 67.0513 18.8153 66.8127 19.1307C66.5769 19.4432 66.2488 19.6875 65.8283 19.8636C65.4078 20.0398 64.9249 20.1278 64.3794 20.1278C63.5783 20.1278 62.9334 19.9602 62.4448 19.625C61.9561 19.2869 61.665 18.8168 61.5712 18.2145L63.0755 18.0696C63.1436 18.3651 63.2885 18.5881 63.5101 18.7386C63.7317 18.8892 64.0201 18.9645 64.3752 18.9645C64.7417 18.9645 65.0357 18.8892 65.2573 18.7386C65.4817 18.5881 65.5939 18.402 65.5939 18.1804C65.5939 17.9929 65.5215 17.8381 65.3766 17.7159C65.2346 17.5937 65.013 17.5 64.7118 17.4347L63.5953 17.2003C62.9675 17.0696 62.503 16.8494 62.2019 16.5398C61.9007 16.2273 61.7516 15.8324 61.7544 15.3551C61.7516 14.9517 61.861 14.6023 62.0826 14.3068C62.307 14.0085 62.6181 13.7784 63.0158 13.6165C63.4164 13.4517 63.878 13.3693 64.4007 13.3693C65.1678 13.3693 65.7715 13.5327 66.2118 13.8594C66.655 14.1861 66.9292 14.6278 67.0343 15.1847ZM68.4469 20V13.4545H69.9895V20H68.4469ZM69.2225 12.5256C68.9782 12.5256 68.7679 12.4446 68.5918 12.2827C68.4157 12.1179 68.3276 11.9205 68.3276 11.6903C68.3276 11.4574 68.4157 11.2599 68.5918 11.098C68.7679 10.9332 68.9782 10.8509 69.2225 10.8509C69.4696 10.8509 69.6799 10.9332 69.8532 11.098C70.0293 11.2599 70.1174 11.4574 70.1174 11.6903C70.1174 11.9205 70.0293 12.1179 69.8532 12.2827C69.6799 12.4446 69.4696 12.5256 69.2225 12.5256ZM74.4309 20.1278C73.7775 20.1278 73.2164 19.9844 72.7477 19.6974C72.2818 19.4105 71.9224 19.0142 71.6696 18.5085C71.4196 18 71.2946 17.4148 71.2946 16.7528C71.2946 16.0881 71.4224 15.5014 71.6781 14.9929C71.9338 14.4815 72.2946 14.0838 72.7605 13.7997C73.2292 13.5128 73.7832 13.3693 74.4224 13.3693C74.9537 13.3693 75.4238 13.4673 75.8329 13.6634C76.2449 13.8565 76.573 14.1307 76.8173 14.4858C77.0616 14.8381 77.2008 15.25 77.2349 15.7216H75.7605C75.7008 15.4062 75.5588 15.1435 75.3343 14.9332C75.1127 14.7202 74.8159 14.6136 74.4437 14.6136C74.1284 14.6136 73.8514 14.6989 73.6127 14.8693C73.3741 15.0369 73.188 15.2784 73.0545 15.5938C72.9238 15.9091 72.8585 16.2869 72.8585 16.7273C72.8585 17.1733 72.9238 17.5568 73.0545 17.8778C73.1852 18.196 73.3684 18.4418 73.6042 18.6151C73.8429 18.7855 74.1227 18.8707 74.4437 18.8707C74.671 18.8707 74.8741 18.8281 75.0531 18.7429C75.2349 18.6548 75.3869 18.5284 75.5091 18.3636C75.6312 18.1989 75.715 17.9986 75.7605 17.7628H77.2349C77.198 18.2259 77.0616 18.6364 76.8258 18.9943C76.59 19.3494 76.269 19.6278 75.8627 19.8295C75.4565 20.0284 74.9792 20.1278 74.4309 20.1278Z" fill="#0049C6"/>
<circle cx="15" cy="15" r="14.5" fill="#0049C6" stroke="#0049C6"/>
<path d="M396 16L95 16" stroke="#0049C6" stroke-width="2" stroke-dasharray="2 2"/>
<path d="M452.276 11.2727V20H450.959V11.2727H452.276ZM455.365 16.1136V20H454.091V13.4545H455.314V14.5199H455.395C455.545 14.1733 455.781 13.8949 456.102 13.6847C456.426 13.4744 456.834 13.3693 457.325 13.3693C457.771 13.3693 458.162 13.4631 458.497 13.6506C458.832 13.8352 459.092 14.1108 459.277 14.4773C459.462 14.8437 459.554 15.2969 459.554 15.8366V20H458.28V15.9901C458.28 15.5156 458.156 15.1449 457.909 14.8778C457.662 14.608 457.322 14.473 456.891 14.473C456.595 14.473 456.332 14.5369 456.102 14.6648C455.875 14.7926 455.695 14.9801 455.561 15.2273C455.43 15.4716 455.365 15.767 455.365 16.1136ZM464.378 13.4545V14.4773H460.679V13.4545H464.378ZM461.693 20V12.696C461.693 12.2869 461.783 11.9474 461.962 11.6776C462.141 11.4048 462.378 11.2017 462.673 11.0682C462.969 10.9318 463.29 10.8636 463.636 10.8636C463.892 10.8636 464.111 10.8849 464.293 10.9276C464.474 10.9673 464.609 11.0043 464.697 11.0384L464.399 12.0696C464.339 12.0526 464.263 12.0327 464.169 12.0099C464.075 11.9844 463.962 11.9716 463.828 11.9716C463.518 11.9716 463.297 12.0483 463.163 12.2017C463.033 12.3551 462.967 12.5767 462.967 12.8665V20H461.693ZM468.192 20.1321C467.578 20.1321 467.043 19.9915 466.585 19.7102C466.128 19.429 465.773 19.0355 465.52 18.5298C465.267 18.0241 465.141 17.4332 465.141 16.7571C465.141 16.0781 465.267 15.4844 465.52 14.9759C465.773 14.4673 466.128 14.0724 466.585 13.7912C467.043 13.5099 467.578 13.3693 468.192 13.3693C468.805 13.3693 469.341 13.5099 469.798 13.7912C470.256 14.0724 470.611 14.4673 470.864 14.9759C471.116 15.4844 471.243 16.0781 471.243 16.7571C471.243 17.4332 471.116 18.0241 470.864 18.5298C470.611 19.0355 470.256 19.429 469.798 19.7102C469.341 19.9915 468.805 20.1321 468.192 20.1321ZM468.196 19.0625C468.594 19.0625 468.923 18.9574 469.185 18.7472C469.446 18.5369 469.639 18.2571 469.764 17.9077C469.892 17.5582 469.956 17.1733 469.956 16.7528C469.956 16.3352 469.892 15.9517 469.764 15.6023C469.639 15.25 469.446 14.9673 469.185 14.7543C468.923 14.5412 468.594 14.4347 468.196 14.4347C467.795 14.4347 467.463 14.5412 467.199 14.7543C466.938 14.9673 466.743 15.25 466.615 15.6023C466.49 15.9517 466.428 16.3352 466.428 16.7528C466.428 17.1733 466.49 17.5582 466.615 17.9077C466.743 18.2571 466.938 18.5369 467.199 18.7472C467.463 18.9574 467.795 19.0625 468.196 19.0625Z" fill="#0049C6"/>
<circle cx="429" cy="15" r="14.5" stroke="#0049C6"/>
<path d="M425.119 21V19.7273L429.057 15.6477C429.477 15.2045 429.824 14.8163 430.097 14.483C430.373 14.1458 430.58 13.8258 430.716 13.5227C430.852 13.2197 430.92 12.8977 430.92 12.5568C430.92 12.1705 430.83 11.8371 430.648 11.5568C430.466 11.2727 430.218 11.0549 429.903 10.9034C429.589 10.7481 429.235 10.6705 428.841 10.6705C428.424 10.6705 428.061 10.7557 427.75 10.9261C427.439 11.0966 427.201 11.3371 427.034 11.6477C426.867 11.9583 426.784 12.322 426.784 12.7386H425.108C425.108 12.0303 425.271 11.411 425.597 10.8807C425.922 10.3504 426.369 9.93939 426.938 9.64773C427.506 9.35227 428.152 9.20455 428.875 9.20455C429.606 9.20455 430.25 9.35038 430.807 9.64205C431.367 9.92992 431.805 10.3239 432.119 10.8239C432.434 11.3201 432.591 11.8807 432.591 12.5057C432.591 12.9375 432.509 13.3598 432.347 13.7727C432.188 14.1856 431.909 14.6458 431.511 15.1534C431.114 15.6572 430.561 16.2689 429.852 16.9886L427.54 19.4091V19.4943H432.778V21H425.119Z" fill="#0049C6"/>
<path d="M16.767 9.36364V21H14.6591V11.4148H14.5909L11.8693 13.1534V11.2216L14.7614 9.36364H16.767Z" fill="white"/>
</svg>
