<svg width="465" height="30" viewBox="0 0 465 30" fill="none" xmlns="http://www.w3.org/2000/svg">
<path d="M40.1518 19V10.2727H43.4927C44.1234 10.2727 44.6475 10.3722 45.0652 10.571C45.4856 10.767 45.7995 11.0355 46.0069 11.3764C46.2172 11.7173 46.3223 12.1037 46.3223 12.5355C46.3223 12.8906 46.2541 13.1946 46.1177 13.4474C45.9814 13.6974 45.7981 13.9006 45.568 14.0568C45.3379 14.2131 45.0808 14.3253 44.7967 14.3935V14.4787C45.1064 14.4957 45.4032 14.5909 45.6873 14.7642C45.9743 14.9347 46.2086 15.1761 46.3904 15.4886C46.5723 15.8011 46.6632 16.179 46.6632 16.6222C46.6632 17.0739 46.5538 17.4801 46.3351 17.8409C46.1163 18.1989 45.7868 18.4815 45.3464 18.6889C44.9061 18.8963 44.3521 19 43.6845 19H40.1518ZM41.7328 17.679H43.4331C44.0069 17.679 44.4203 17.5696 44.6731 17.3509C44.9288 17.1293 45.0566 16.8452 45.0566 16.4986C45.0566 16.2401 44.9927 16.0071 44.8649 15.7997C44.737 15.5895 44.5552 15.4247 44.3194 15.3054C44.0836 15.1832 43.8024 15.1222 43.4757 15.1222H41.7328V17.679ZM41.7328 13.9844H43.2967C43.5694 13.9844 43.8152 13.9347 44.0339 13.8352C44.2527 13.733 44.4245 13.5895 44.5495 13.4048C44.6774 13.2173 44.7413 12.9957 44.7413 12.7401C44.7413 12.402 44.622 12.1236 44.3833 11.9048C44.1475 11.6861 43.7967 11.5767 43.3308 11.5767H41.7328V13.9844ZM49.8539 19.1321C49.4391 19.1321 49.0655 19.0582 48.7331 18.9105C48.4036 18.7599 48.1422 18.5384 47.949 18.2457C47.7587 17.9531 47.6635 17.5923 47.6635 17.1634C47.6635 16.794 47.7317 16.4886 47.8681 16.2472C48.0044 16.0057 48.1905 15.8125 48.4263 15.6676C48.6621 15.5227 48.9277 15.4134 49.2232 15.3395C49.5215 15.2628 49.8297 15.2074 50.1479 15.1733C50.5314 15.1335 50.8425 15.098 51.0811 15.0668C51.3198 15.0327 51.4931 14.9815 51.601 14.9134C51.7118 14.8423 51.7672 14.733 51.7672 14.5852V14.5597C51.7672 14.2386 51.6721 13.9901 51.4817 13.8139C51.2914 13.6378 51.0172 13.5497 50.6593 13.5497C50.2814 13.5497 49.9817 13.6321 49.7601 13.7969C49.5414 13.9616 49.3936 14.1562 49.3169 14.3807L47.8766 14.1761C47.9902 13.7784 48.1777 13.446 48.4391 13.179C48.7005 12.9091 49.0201 12.7074 49.3979 12.5739C49.7757 12.4375 50.1934 12.3693 50.6507 12.3693C50.9661 12.3693 51.28 12.4062 51.5925 12.4801C51.905 12.554 52.1905 12.6761 52.449 12.8466C52.7076 13.0142 52.915 13.2429 53.0712 13.5327C53.2303 13.8224 53.3098 14.1847 53.3098 14.6193V19H51.8269V18.1009H51.7757C51.682 18.2827 51.5499 18.4531 51.3794 18.6122C51.2118 18.7685 51.0002 18.8949 50.7445 18.9915C50.4917 19.0852 50.1948 19.1321 49.8539 19.1321ZM50.2544 17.9986C50.5641 17.9986 50.8326 17.9375 51.0598 17.8153C51.2871 17.6903 51.4618 17.5256 51.584 17.321C51.709 17.1165 51.7715 16.8935 51.7715 16.652V15.8807C51.7232 15.9205 51.6408 15.9574 51.5243 15.9915C51.4107 16.0256 51.2828 16.0554 51.1408 16.081C50.9988 16.1065 50.8581 16.1293 50.7189 16.1491C50.5797 16.169 50.459 16.1861 50.3567 16.2003C50.1266 16.2315 49.9206 16.2827 49.7388 16.3537C49.557 16.4247 49.4135 16.5241 49.3084 16.652C49.2033 16.777 49.1507 16.9389 49.1507 17.1378C49.1507 17.4219 49.2544 17.6364 49.4618 17.7812C49.6692 17.9261 49.9334 17.9986 50.2544 17.9986ZM60.0343 14.1847L58.628 14.3381C58.5882 14.196 58.5186 14.0625 58.4192 13.9375C58.3226 13.8125 58.1919 13.7116 58.0272 13.6349C57.8624 13.5582 57.6607 13.5199 57.4221 13.5199C57.101 13.5199 56.8311 13.5895 56.6124 13.7287C56.3965 13.8679 56.29 14.0483 56.2928 14.2699C56.29 14.4602 56.3596 14.6151 56.5016 14.7344C56.6465 14.8537 56.8851 14.9517 57.2175 15.0284L58.334 15.267C58.9533 15.4006 59.4135 15.6122 59.7147 15.902C60.0186 16.1918 60.1721 16.571 60.1749 17.0398C60.1721 17.4517 60.0513 17.8153 59.8127 18.1307C59.5769 18.4432 59.2488 18.6875 58.8283 18.8636C58.4078 19.0398 57.9249 19.1278 57.3794 19.1278C56.5783 19.1278 55.9334 18.9602 55.4448 18.625C54.9561 18.2869 54.665 17.8168 54.5712 17.2145L56.0755 17.0696C56.1436 17.3651 56.2885 17.5881 56.5101 17.7386C56.7317 17.8892 57.0201 17.9645 57.3752 17.9645C57.7417 17.9645 58.0357 17.8892 58.2573 17.7386C58.4817 17.5881 58.5939 17.402 58.5939 17.1804C58.5939 16.9929 58.5215 16.8381 58.3766 16.7159C58.2346 16.5937 58.013 16.5 57.7118 16.4347L56.5953 16.2003C55.9675 16.0696 55.503 15.8494 55.2019 15.5398C54.9007 15.2273 54.7516 14.8324 54.7544 14.3551C54.7516 13.9517 54.861 13.6023 55.0826 13.3068C55.307 13.0085 55.6181 12.7784 56.0158 12.6165C56.4164 12.4517 56.878 12.3693 57.4007 12.3693C58.1678 12.3693 58.7715 12.5327 59.2118 12.8594C59.655 13.1861 59.9292 13.6278 60.0343 14.1847ZM61.4469 19V12.4545H62.9895V19H61.4469ZM62.2225 11.5256C61.9782 11.5256 61.7679 11.4446 61.5918 11.2827C61.4157 11.1179 61.3276 10.9205 61.3276 10.6903C61.3276 10.4574 61.4157 10.2599 61.5918 10.098C61.7679 9.93324 61.9782 9.85085 62.2225 9.85085C62.4696 9.85085 62.6799 9.93324 62.8532 10.098C63.0293 10.2599 63.1174 10.4574 63.1174 10.6903C63.1174 10.9205 63.0293 11.1179 62.8532 11.2827C62.6799 11.4446 62.4696 11.5256 62.2225 11.5256ZM67.4309 19.1278C66.7775 19.1278 66.2164 18.9844 65.7477 18.6974C65.2818 18.4105 64.9224 18.0142 64.6696 17.5085C64.4196 17 64.2946 16.4148 64.2946 15.7528C64.2946 15.0881 64.4224 14.5014 64.6781 13.9929C64.9338 13.4815 65.2946 13.0838 65.7605 12.7997C66.2292 12.5128 66.7832 12.3693 67.4224 12.3693C67.9537 12.3693 68.4238 12.4673 68.8329 12.6634C69.2449 12.8565 69.573 13.1307 69.8173 13.4858C70.0616 13.8381 70.2008 14.25 70.2349 14.7216H68.7605C68.7008 14.4062 68.5588 14.1435 68.3343 13.9332C68.1127 13.7202 67.8159 13.6136 67.4437 13.6136C67.1284 13.6136 66.8514 13.6989 66.6127 13.8693C66.3741 14.0369 66.188 14.2784 66.0545 14.5938C65.9238 14.9091 65.8585 15.2869 65.8585 15.7273C65.8585 16.1733 65.9238 16.5568 66.0545 16.8778C66.1852 17.196 66.3684 17.4418 66.6042 17.6151C66.8429 17.7855 67.1227 17.8707 67.4437 17.8707C67.671 17.8707 67.8741 17.8281 68.0531 17.7429C68.2349 17.6548 68.3869 17.5284 68.5091 17.3636C68.6312 17.1989 68.715 16.9986 68.7605 16.7628H70.2349C70.198 17.2259 70.0616 17.6364 69.8258 17.9943C69.59 18.3494 69.269 18.6278 68.8627 18.8295C68.4565 19.0284 67.9792 19.1278 67.4309 19.1278Z" fill="#0049C6"/>
<path d="M389 15L88 15" stroke="#0049C6" stroke-width="2" stroke-dasharray="2 2"/>
<path d="M445.276 10.2727V19H443.959V10.2727H445.276ZM448.365 15.1136V19H447.091V12.4545H448.314V13.5199H448.395C448.545 13.1733 448.781 12.8949 449.102 12.6847C449.426 12.4744 449.834 12.3693 450.325 12.3693C450.771 12.3693 451.162 12.4631 451.497 12.6506C451.832 12.8352 452.092 13.1108 452.277 13.4773C452.462 13.8437 452.554 14.2969 452.554 14.8366V19H451.28V14.9901C451.28 14.5156 451.156 14.1449 450.909 13.8778C450.662 13.608 450.322 13.473 449.891 13.473C449.595 13.473 449.332 13.5369 449.102 13.6648C448.875 13.7926 448.695 13.9801 448.561 14.2273C448.43 14.4716 448.365 14.767 448.365 15.1136ZM457.378 12.4545V13.4773H453.679V12.4545H457.378ZM454.693 19V11.696C454.693 11.2869 454.783 10.9474 454.962 10.6776C455.141 10.4048 455.378 10.2017 455.673 10.0682C455.969 9.93182 456.29 9.86364 456.636 9.86364C456.892 9.86364 457.111 9.88494 457.293 9.92756C457.474 9.96733 457.609 10.0043 457.697 10.0384L457.399 11.0696C457.339 11.0526 457.263 11.0327 457.169 11.0099C457.075 10.9844 456.962 10.9716 456.828 10.9716C456.518 10.9716 456.297 11.0483 456.163 11.2017C456.033 11.3551 455.967 11.5767 455.967 11.8665V19H454.693ZM461.192 19.1321C460.578 19.1321 460.043 18.9915 459.585 18.7102C459.128 18.429 458.773 18.0355 458.52 17.5298C458.267 17.0241 458.141 16.4332 458.141 15.7571C458.141 15.0781 458.267 14.4844 458.52 13.9759C458.773 13.4673 459.128 13.0724 459.585 12.7912C460.043 12.5099 460.578 12.3693 461.192 12.3693C461.805 12.3693 462.341 12.5099 462.798 12.7912C463.256 13.0724 463.611 13.4673 463.864 13.9759C464.116 14.4844 464.243 15.0781 464.243 15.7571C464.243 16.4332 464.116 17.0241 463.864 17.5298C463.611 18.0355 463.256 18.429 462.798 18.7102C462.341 18.9915 461.805 19.1321 461.192 19.1321ZM461.196 18.0625C461.594 18.0625 461.923 17.9574 462.185 17.7472C462.446 17.5369 462.639 17.2571 462.764 16.9077C462.892 16.5582 462.956 16.1733 462.956 15.7528C462.956 15.3352 462.892 14.9517 462.764 14.6023C462.639 14.25 462.446 13.9673 462.185 13.7543C461.923 13.5412 461.594 13.4347 461.196 13.4347C460.795 13.4347 460.463 13.5412 460.199 13.7543C459.938 13.9673 459.743 14.25 459.615 14.6023C459.49 14.9517 459.428 15.3352 459.428 15.7528C459.428 16.1733 459.49 16.5582 459.615 16.9077C459.743 17.2571 459.938 17.5369 460.199 17.7472C460.463 17.9574 460.795 18.0625 461.196 18.0625Z" fill="#0049C6"/>
<circle cx="15" cy="15" r="15" fill="#97B7EF"/>
<circle cx="422" cy="15" r="15" fill="#0049C6"/>
<path d="M418.119 21V19.7273L422.057 15.6477C422.477 15.2045 422.824 14.8163 423.097 14.483C423.373 14.1458 423.58 13.8258 423.716 13.5227C423.852 13.2197 423.92 12.8977 423.92 12.5568C423.92 12.1705 423.83 11.8371 423.648 11.5568C423.466 11.2727 423.218 11.0549 422.903 10.9034C422.589 10.7481 422.235 10.6705 421.841 10.6705C421.424 10.6705 421.061 10.7557 420.75 10.9261C420.439 11.0966 420.201 11.3371 420.034 11.6477C419.867 11.9583 419.784 12.322 419.784 12.7386H418.108C418.108 12.0303 418.271 11.411 418.597 10.8807C418.922 10.3504 419.369 9.93939 419.938 9.64773C420.506 9.35227 421.152 9.20455 421.875 9.20455C422.606 9.20455 423.25 9.35038 423.807 9.64205C424.367 9.92992 424.805 10.3239 425.119 10.8239C425.434 11.3201 425.591 11.8807 425.591 12.5057C425.591 12.9375 425.509 13.3598 425.347 13.7727C425.188 14.1856 424.909 14.6458 424.511 15.1534C424.114 15.6572 423.561 16.2689 422.852 16.9886L420.54 19.4091V19.4943H425.778V21H418.119Z" fill="white"/>
<path d="M16.767 9.36364V21H14.6591V11.4148H14.5909L11.8693 13.1534V11.2216L14.7614 9.36364H16.767Z" fill="white"/>
</svg>
